<svg xmlns="http://www.w3.org/2000/svg" viewBox="0 0 500 500"><path d="M0 250.002v250.002l250.25-.252 250.25-.252.252-249.75L501.004 0H0v250.002m.492.498c0 137.5.116 193.601.258 124.67.142-68.932.142-181.432 0-250C.608 56.601.492 113 .492 250.5M249.787 41.826c-2.042 1.471-3.729 3.026-3.75 3.455-.073 1.525 3.258 2.016 5.248.773 1.998-1.248 2.013-1.13 1.332 10.263-.669 11.187-.626 11.545 1.448 12.204 3.329 1.056 3.645-.078 4.254-15.271L258.89 39l-2.695.076c-1.482.042-4.366 1.279-6.408 2.75m-33.864 1.097c-5.208 5.208-3.24 22.696 2.926 25.996 2.933 1.57 9.359 1.324 11.9-.456 4.597-3.219 4.997-15.251.779-23.408-3.087-5.971-10.723-7.014-15.605-2.132m65.346.289c-6.566 3.169-9.355 21.723-3.963 26.37 8.718 7.513 18.74-.561 19.022-15.325.191-10.042-6.686-15.086-15.059-11.045m-60.479.846c-3.768 2.196-2.9 17.276 1.233 21.409 4.552 4.553 7.969-2.047 6.251-12.075-1.455-8.498-3.833-11.463-7.484-9.334m61.513 5.692c-4.184 9.834-2.409 20.763 3.033 18.675 3.599-1.381 7.026-16.011 4.748-20.268-1.952-3.647-5.896-2.839-7.781 1.593m-97.182 1.401c-1.679 2.283-2.817 4.533-2.528 5 1.07 1.73 4.305.766 6.375-1.901 1.929-2.483 2.075-2.531 1.514-.493-1.184 4.302 4.878 22.212 7.518 22.212 2.881 0 2.729-2.188-1.04-14.978-2.178-7.392-3.96-13.564-3.96-13.715 0-.152-1.086-.276-2.413-.276-1.674 0-3.35 1.273-5.466 4.151m128.629 2.152c-4.872 1.364-5.159 4.08-.371 3.521l3.379-.394-3.517 9.535c-4.348 11.785-4.527 13.535-1.388 13.535 2.106 0 2.852-1.365 7.109-13 2.616-7.15 4.568-13.337 4.338-13.75-.556-.997-4.917-.745-9.55.553M156.5 59.155c-5.17 2.828-5.95 9.188-2.133 17.386 4.803 10.315 13.576 13.669 19.71 7.536 3.328-3.328 3.506-4.752 1.455-11.658-3.368-11.339-11.803-17.218-19.032-13.264m2.548 3.524c-3.716 2.602-1.279 12.124 4.753 18.571 2.985 3.19 3.507 3.3 5.628 1.179 2.369-2.37 1.906-6.439-1.512-13.278-3.635-7.276-5.636-8.736-8.869-6.472m182.702 4.01c-3.487.912-2.017 3.561 1.732 3.123 3.303-.385 3.414-.301 2.166 1.641-9.191 14.295-11.673 22.305-6.268 20.231 1.221-.468 14.62-23.423 14.62-25.045 0-.709-9.496-.669-12.25.05M126.594 79.678c-2.077 6.095-2.043 6.322.931 6.322 2.003 0 2.648-.617 3.122-2.984.328-1.641.999-2.735 1.491-2.431.492.304.636.972.319 1.484-.832 1.346 10.759 17.878 12.543 17.89 4.216.029 3.665-1.736-4.131-13.219-9.43-13.891-11.585-14.957-14.275-7.062M370.5 81.721c-10.313 2.49-18.536 19.959-11.865 25.206 6.483 5.1 17.144.307 22.449-10.092 3.375-6.616.906-14.835-4.457-14.835-.805 0-2.063-.172-2.795-.381-.733-.21-2.232-.164-3.332.102m-.653 5.534c-7.392 6.255-10.495 13.943-6.93 17.17 4.816 4.358 17.351-11.314 13.613-17.02-1.955-2.983-3.299-3.013-6.683-.15m-122.392 1.2c-2.655 2.654-3.587 13.562-1.493 17.474 2.631 4.915 10.999 4.981 13.52.106C263.845 97.598 260.093 86 253 86c-1.948 0-3.998.907-5.545 2.455m-23.504 2.098c-3.009 3.202-.854 5.532 2.448 2.646 1.07-.934 1.617-1.139 1.217-.455-1.525 2.609 1.445 17.256 3.499 17.256 2.255 0 2.312-1.066.705-13.137-1.329-9.983-3.091-11.396-7.869-6.31m27.021-.02c-1.749 2.109-2.382 10.36-1.057 13.79 2.148 5.558 7.04 1.054 7.07-6.508.03-7.322-2.967-10.951-6.013-7.282m23.778.039c-1.512.821-2.75 2.153-2.75 2.96 0 1.734 1.378 1.871 4.111.408 1.737-.929 1.856-.837.968.75-1.291 2.309-3.979 16.077-3.276 16.78 2.572 2.572 3.987.134 5.932-10.22 2.377-12.654 1.625-14.264-4.985-10.678m-74.447 2.625c-8.3 4.01-1.028 24.198 8.061 22.38 4.337-.867 6.091-2.983 6.091-7.351 0-10.816-7.152-18.411-14.152-15.029m-98.38 3.726c-5.033 5.033-3.616 10.349 4.875 18.292 14.525 13.585 28.323.635 14.872-13.958-7.428-8.058-14.476-9.605-19.747-4.334M202.2 96.2c-2.378 2.378-.485 12.327 2.935 15.422 4.509 4.081 6.498-4.428 2.892-12.372-1.96-4.319-3.666-5.211-5.827-3.05m94.529.798c-5.009 3.941-7.27 15.461-3.729 19.002 2.59 2.59 9.045 2.712 11.307.213 3.786-4.183 6.046-14.537 3.907-17.9-2.099-3.301-8.088-3.987-11.485-1.315m-191.612 3.215c-1.276 3.448-.192 5.752 5.439 11.565 6.939 7.165 12.968 6.432 11.018-1.339-1.948-7.76-14.487-15.552-16.457-10.226m193.959.418c-4.063 5.165-4.948 13.437-1.575 14.731 3.178 1.22 8.401-9.63 7.111-14.771-.832-3.314-2.91-3.299-5.536.04m-123.326 4.767c-.891 1.869-1.35 3.669-1.019 4 1.3 1.3 3.378.492 4.238-1.648.708-1.762.918-1.865.968-.475.103 2.881 6.971 15.725 8.409 15.725 2.745 0 2.42-1.502-2.405-11.117-5.527-11.014-7.448-12.237-10.191-6.485m216.25.907c0 .904 1.273 1.816 3.092 2.215l3.091.679-9.096 8.488c-8.893 8.298-10.053 10.313-5.938 10.313 3.247 0 23.245-19.046 21.632-20.602-2.132-2.058-12.781-2.968-12.781-1.093m-72.333 1.362c-1.288 1.288-.643 2.203 1.772 2.517l2.439.316-4.343 7.679c-4.355 7.699-4.561 8.822-1.618 8.82 1.316-.001 12.083-17.303 12.083-19.417 0-.811-9.516-.733-10.333.085m-165.78 8.446c-5.785 5.785 5.31 21.56 13.685 19.458 6.78-1.701 6.558-10.196-.457-17.571-4.525-4.756-9.63-5.485-13.228-1.887m3.192 2.291c-2.636 3.177 5.35 15.555 9.094 14.094 3.652-1.425 3.005-5.775-1.793-12.066-2.767-3.628-5.372-4.352-7.301-2.028M80 126.07c0 5.722.129 6.051 2.25 5.75 1.594-.227 2.34-1.101 2.56-2.999.305-2.644.422-2.589 8.859 4.145 8.242 6.579 11.523 7.917 12.107 4.937.365-1.864-20.772-17.903-23.594-17.903-2.003 0-2.182.498-2.182 6.07m260-4.136c0 .513 1.157 1.076 2.572 1.25 2.536.312 2.494.415-3.065 7.557-5.304 6.814-6.121 9.259-3.091 9.259 1.642 0 14.736-16.944 14.007-18.125-.728-1.178-10.423-1.124-10.423.059m-109.888 3.7c-3.316 2.323-2.721 12.645.899 15.576 4.418 3.578 9.989.37 9.989-5.752 0-9.148-5.18-13.822-10.888-9.824m20.111-.077c-2.783 1.948-2.905 3.794-.195 2.934 1.919-.609 2.013-.277 1.75 6.183-.225 5.524.008 6.826 1.222 6.826 1.197 0 1.558-1.767 1.789-8.75.311-9.427-.209-10.246-4.566-7.193m17.35 2.013c-.864.863-1.833 2.776-2.155 4.25-.322 1.474-.753 3.23-.959 3.902-1.418 4.629 3.731 9.304 8.56 7.772 4.259-1.352 6.679-12.653 3.41-15.923-2.021-2.02-6.836-2.021-8.856-.001m-36.129 1.796c-.943 3.756 1.333 10.823 3.361 10.438 2.062-.391 2.882-7.652 1.215-10.766-1.47-2.747-3.847-2.577-4.576.328m38.707-.048c-2.025 2.44-2.572 10.088-.825 11.538 2.358 1.957 4.883-2.517 4.485-7.947-.329-4.495-1.751-5.891-3.66-3.591m141.547.126c-12.887 4.597-19.143 15.336-12.342 21.186 9.268 7.972 31.252-6.224 26.182-16.908-2.586-5.45-6.854-6.77-13.84-4.278m-200.043 1.385c-2.672 2.952-1.737 5.853 1.004 3.112.746-.746 1.615.883 2.938 5.5 1.037 3.623 2.443 6.559 3.141 6.559 1.754 0 1.585-2.2-.78-10.142-2.126-7.136-3.444-8.188-6.303-5.029m-76.294.673c-1.339 3.489-.863 7.925.889 8.285 1.308.269 1.75-.293 1.75-2.223 0-2.345.582-1.968 6.33 4.099 4.738 5.002 6.774 6.511 8.094 6.004 1.473-.565.571-1.957-5.454-8.422-7.657-8.215-10.659-10.218-11.609-7.743m153.389.66c-3.111 1.136-3.8 3.346-.799 2.561 1.864-.487 1.841-.217-.5 6.002-2.921 7.762-2.875 7.275-.695 7.275 1.28 0 2.496-2.059 4.492-7.608 3.377-9.391 3.108-10.277-2.498-8.23m120.362 3.922c-7.41 4.948-9.588 11.368-4.516 13.314 3.963 1.521 16.404-7.879 16.404-12.394 0-6.108-3.691-6.394-11.888-.92m-216.216 1.02c-3.535 3.535-.703 11.408 5.336 14.837 5.451 3.094 9.946-3.845 6.643-10.257-3.395-6.592-8.15-8.409-11.979-4.58m161.101 3.712c-4.192 4.041-4.997 5.4-4.997 8.443 0 9.78 13.809 8.662 20.081-1.625 2.529-4.146 2.417-6.818-.395-9.46-4.089-3.841-8.852-2.984-14.689 2.642m-157.747-3.098c-3.135 1.126.741 12.282 4.267 12.282 2.49 0 2.871-2.813.956-7.06-2.019-4.478-3.414-5.872-5.223-5.222m161.178 5.455c-7.854 7.24-3.978 13.76 4.011 6.746 4.468-3.923 5.862-6.395 5.049-8.957-.98-3.089-4.149-2.316-9.06 2.211m-53.158-1.923c.241.688 1.214 1.11 2.162.938 1.626-.294-1.057 5.723-4.69 10.518-.965 1.273-.212 3.294 1.227 3.294.767 0 9.031-14.14 9.031-15.453 0-.301-1.837-.547-4.083-.547-2.833 0-3.95.383-3.647 1.25m-241.347 6.673c-5.501 5.501-2.759 12.004 7.147 16.954 19.52 9.755 30.292-6.477 11.09-16.711-8.057-4.295-14.105-4.375-18.237-.243m114.666-2.067c-2.25 3.641-2.48 6.144-.564 6.144 1.206 0 1.984-.682 1.998-1.75.015-1.139.553-.703 1.543 1.25 2.476 4.887 6.052 8.723 7.784 8.349 1.273-.275.544-1.888-3.437-7.599-4.903-7.034-6.219-8.183-7.324-6.394m-109.822 3.389c-2.859 2.203-2.661 5.817.483 8.842 3.035 2.919 12.475 7.232 14.299 6.533 2.726-1.047 3.917-5.26 2.219-7.852-2.933-4.475-14.381-9.541-17.001-7.523m50.306 1.39c-2.553 3.244-2.566 4.045-.132 8.036 4.012 6.579 14.15 10.619 18.352 7.313 4.088-3.215 3.71-7.619-1.043-12.163-7.015-6.705-13.468-7.902-17.177-3.186m202.202-.328c-8.456 4.699-9.213 15.693-1.081 15.693 4.324 0 10.806-7.138 10.806-11.901 0-3.783-5.725-6.015-9.725-3.792m-199.15 2.459c-2.24 4.185 8.854 14.156 12.439 11.181 2.644-2.194 1.642-5.615-2.744-9.369-4.553-3.897-8.213-4.581-9.695-1.812m198.505 2.262c-2.751 3.269-3.45 7.347-1.469 8.571 1.744 1.078 8.032-6.23 7.652-8.892-.474-3.314-3.246-3.17-6.183.321m55.973 1.806c-.339.547.617 1.406 2.123 1.908 2.686.895 2.581 1.018-5.599 6.494-7.387 4.946-8.117 5.699-6.404 6.616 1.916 1.025 19.213-9.159 20.106-11.839.586-1.757-9.221-4.806-10.226-3.179M161.75 158.08c-3.144 1.831-2.203 6.702 2.132 11.038 4.436 4.435 8.671 5.138 11.582 1.922 5.275-5.83-6.633-17.084-13.714-12.96m269-.329c-2.498.565-2.162 2.104.75 3.431 3.678 1.676 3.436 1.88-8.555 7.223-10.334 4.606-12.659 6.634-8.521 7.436 1.727.335 27.591-10.738 27.561-11.799-.066-2.339-8.306-6.952-11.235-6.291m-267.139 2.821c-1.082 2.818 6.045 11.377 8.308 9.978 2.085-1.288 1.05-5.188-2.217-8.354-3.667-3.555-5.194-3.962-6.091-1.624M335 163.893c0 .491.759 1.184 1.687 1.54 1.362.523.688 1.521-3.5 5.185-2.853 2.495-5.187 4.952-5.187 5.46 0 2.175 2.964.538 9.021-4.983l6.479-5.906-2.815-1.094c-3.411-1.327-5.685-1.407-5.685-.202m-144 82.026V324h28.593c24.881 0 29.898-.266 38.646-2.049 38.53-7.852 57.785-33.457 57.867-76.951.074-39.48-16.556-64.057-50.147-74.109-6.928-2.074-9.861-2.262-41.209-2.643l-33.75-.41v78.081m-86.403-74.075c-1.294 2.093.676 8.156 2.65 8.156 1.534 0 1.886-.524 1.546-2.304-.419-2.192-.027-2.092 8.038 2.058 6.452 3.321 8.669 4.056 9.274 3.076.569-.921-1.964-2.782-8.905-6.54-9.82-5.318-11.663-5.968-12.603-4.446m44.101.792c-1.375 1.375-.747 6.364.802 6.364.825 0 1.5-.685 1.5-1.523 0-1.037 1.625-.239 5.09 2.5 4.815 3.806 7.91 5.052 7.91 3.183 0-.882-11.284-9.948-13.385-10.754-.671-.258-1.533-.154-1.917.23m195.713 6.255C336.07 183.978 335.445 192 343.39 192c6.498 0 13.573-7.174 11.342-11.5-2.079-4.031-5.48-4.561-10.321-1.609m37.609.359c-6.81 3.48-8.83 6.828-6.751 11.189 4.091 8.578 22.731 2.971 22.731-6.837 0-6.575-7.585-8.641-15.98-4.352m-333.507-.271c-.946 1.531 1.655 9.04 3.467 10.01 2.745 1.469 4.256-.238 3.04-3.436-.94-2.472-.861-2.701.711-2.06 5.334 2.174 18.884 6.507 20.35 6.507.938 0 1.947-.632 2.244-1.404.398-1.038-2.85-2.6-12.479-6-13.346-4.712-16.278-5.324-17.333-3.617m295.564 3.61c-3.3 2.777-4.033 6.107-1.552 7.059 2.532.972 9.475-4.277 9.475-7.162 0-3.394-3.826-3.345-7.923.103m39.727.05c-5.231 2.938-6.288 4.588-4.765 7.433 1.314 2.457 2.922 2.427 8.421-.158 5.398-2.538 6.794-4.096 6.367-7.109-.468-3.298-4.332-3.362-10.023-.166M210 246.119v62.118l19.25-.519c28.141-.759 39.538-4.344 51.371-16.162 11.366-11.351 15.643-23.909 15.686-46.056.086-44.259-19.235-61.5-68.917-61.5H210v62.119m225.393-58.753c-10.951 2.751-15.534 7.646-13.352 14.259 2.231 6.759 11.824 8.07 23.21 3.171 5.647-2.429 7.749-4.996 7.749-9.463 0-7.242-7.316-10.552-17.607-7.967m-296.822 1.205c-3.215 3.216-1.941 7.043 3.429 10.299 6.484 3.932 13 2.47 13-2.915 0-5.951-12.323-11.49-16.429-7.384m2.379 1.99c-1.642 1.978-.569 4.091 3.266 6.43 3.939 2.401 6.633 2.567 7.442.458 1.369-3.567-8.302-9.788-10.708-6.888m295.274.908c-8.958 2.797-12.551 8.68-7.087 11.604 4.526 2.423 17.335-2.12 18.444-6.541 1.394-5.554-3.21-7.607-11.357-5.063m-338.982.565c-6.634 2.666-5.312 10.129 2.422 13.67 10.154 4.648 17.336 2.872 17.336-4.286 0-6.164-12.729-12.209-19.758-9.384m1.938 3.089c-5.856 2.182.6 9.207 8.558 9.313 4.397.059 4.785-.134 5.063-2.522.492-4.238-8.474-8.709-13.621-6.791m259.241 1.394c1.799 1.361 1.498 1.645-4.75 4.478-3.669 1.664-6.671 3.47-6.671 4.015 0 1.685 2.123 1.125 10.31-2.717l7.898-3.706-2.215-1.794c-1.218-.986-3.177-1.779-4.354-1.761-2.086.031-2.091.068-.218 1.485M398 201.671c0 .369.663 1.404 1.472 2.298 1.339 1.48.66 1.846-7.5 4.038-8.393 2.256-12.138 4.993-6.83 4.993 3.058 0 21.858-5.329 21.858-6.195 0-1.397-5.498-5.805-7.24-5.805-.968 0-1.76.302-1.76.671m-356.077 6.252C33.78 216.066 42.85 225 59.258 225c14.61 0 16.162-15.012 1.961-18.956-7.8-2.166-16.054-1.362-19.296 1.879m87.825-.338c-.321.322-.127 1.897.431 3.5 1.16 3.327 4.38 4.161 3.531.915-.287-1.1-.452-2-.366-1.999.086 0 2.523.9 5.417 2 5.516 2.096 9.239 2.569 9.239 1.172 0-1.684-16.963-6.877-18.252-5.588m-84.177 2.986c-4.739 4.74 2.68 10.429 13.6 10.429 5.448 0 8.39-3.24 6.2-6.828-2.823-4.625-16.32-7.08-19.8-3.601m311.831 3.334c-4.627 2.102-5.76 4.023-4.431 7.518 2.534 6.665 18.029 2.832 18.029-4.46 0-5.093-6.098-6.464-13.598-3.058m3.098 1.624c-2.2.792-4.113 1.448-4.25 1.456-.137.008-.25 1.14-.25 2.515 0 4.385 10.968 2.62 11.84-1.905.661-3.435-1.698-4.099-7.34-2.066m75.468 3.412c-12.36 3.755-11.608 16.821 1.069 18.564 14.205 1.954 24.944-5.574 21.342-14.96-1.514-3.945-14.445-6.024-22.411-3.604M87.004 220.25c.006 2.218 3.919 7.75 5.481 7.75 1.813 0 1.989-2.126.315-3.8-1.625-1.625.071-1.574 9.862.3 4.311.825 7.95 1.5 8.088 1.5 1.469.001-.316-3.087-2-3.46-14.462-3.201-21.751-3.969-21.746-2.29m354.868 1.858c-8.056 1.204-11.281 4.391-8.915 8.811 2.8 5.233 19.259 3.052 20.714-2.745 1.288-5.132-3.068-7.372-11.799-6.066m-315.622 2.379c-7.444 5.38 6.184 14.098 14.816 9.478 2.568-1.375 2.523-6.122-.081-8.479-2.818-2.55-11.751-3.155-14.735-.999m267.393.541c-8.8 2.637-9.101 11.694-.467 14.019 6.834 1.841 15.627-.442 17.874-4.64 3.937-7.357-6.102-12.767-17.407-9.379m-264.967 1.22c-2.504 1.83-1.204 4.423 2.895 5.775 4.78 1.578 7.863.939 8.24-1.705.502-3.53-7.75-6.546-11.135-4.07M395 228.306c-2.957 1.009-3.5 1.659-3.5 4.194 0 2.957.084 3.004 5.845 3.303 6.419.332 10.655-1.507 10.655-4.626 0-4.122-5.663-5.373-13-2.871m-36.25 4.266c-3.205 1.739-3.791 6.32-1.094 8.556 2.355 1.951 11.475 1.672 14.715-.452 8.665-5.677-4.097-13.271-13.621-8.104m2.944 1.586c-2.064.769-2.725 1.615-2.5 3.194.391 2.745 8.14 3.602 11.306 1.251 4.555-3.384-2.331-6.86-8.806-4.445m-271.439 5.904c-10.159 3.108-7.114 13.255 4.369 14.554 9.656 1.093 15.717-3.138 14.044-9.804-1.078-4.294-11.292-6.929-18.413-4.75M36 244.065c0 2.463 5.548 8.893 7.691 8.914 3.08.03 3.605-1.401 1.285-3.5-3.162-2.862-2.633-2.995 10.607-2.671 11.693.287 12.561.18 12.239-1.5C67.403 243.127 36 241.9 36 244.065m53.571.506c-2.995 2.996-.759 5.884 5.358 6.917 6.815 1.151 12.288-3.112 9.031-7.036-1.713-2.064-12.293-1.976-14.389.119m33.014 1.292c-.381.615.12 2.234 1.112 3.597 2.215 3.044 4.757 3.386 4.013.54-.485-1.857-.03-2 6.384-2 3.937 0 6.906-.43 6.906-1 0-.55-1.284-1-2.853-1-1.57 0-5.557-.283-8.862-.628-3.987-.417-6.241-.252-6.7.491M392 249.687c-7.43 3.848-4.79 11.384 4.676 13.35 9.751 2.024 17.53-2.094 15.938-8.437-1.415-5.639-13.603-8.544-20.614-4.913m-21.542 3.181c.551 1.736.087 1.832-6.564 1.357-5.83-.418-7.071-.254-6.694.881.459 1.385 18.8 2.747 18.8 1.396 0-.315-.727-1.682-1.615-3.037-1.934-2.952-4.813-3.389-3.927-.597m24.551-.578c-3.11 1.573-3.799 4.659-1.427 6.394 3.013 2.203 13.13 1.723 14.418-.684 2.761-5.159-6.251-9.12-12.991-5.71m55.405-.152c-.273.443.277 1.988 1.224 3.432l1.721 2.627-12.046-.719c-8.991-.537-12.235-.413-12.792.489-1.414 2.287 1.024 2.815 16.229 3.518 17.342.802 17.823.551 12.298-6.424-2.786-3.518-5.521-4.723-6.634-2.923m-323.014 9.29c-7.526 3.276-4.663 10.572 4.15 10.572 9.18 0 14.17-5.28 9.45-10-2.37-2.37-8.844-2.643-13.6-.572m6.1 1.064c-.55.183-2.238.606-3.75.94-3.376.744-3.945 5.054-.799 6.052 3.813 1.211 10.049-1.286 10.049-4.023 0-1.353-.413-2.461-.918-2.461-.505 0-1.518-.189-2.25-.421-.733-.231-1.782-.271-2.332-.087m-87.09 5.585C33.093 271.943 36.282 287 50.419 287c15.568 0 24.539-9.196 16.658-17.077-3.142-3.142-13.129-4.034-20.667-1.846m50.668.787c-11.598 1.82-12.416 2.48-8.154 6.564 3.541 3.391 7.743 3.071 4.643-.354-1.926-2.129-1.425-2.332 8.933-3.62 7.802-.971 8.806-1.381 7.43-3.038-.646-.779-1.457-1.365-1.802-1.302-.346.063-5.318.851-11.05 1.75m-44.391 2.205c-9.358 1.523-12.907 7.29-6.641 10.79C51.722 285.03 65 280.74 65 275.737c0-4.132-4.688-5.909-12.313-4.668m315.602.926c.425 1.628.124 1.906-1.634 1.508-8.678-1.961-11.259-2.298-11.992-1.566-1.221 1.221-.074 1.663 9.171 3.538 9.43 1.913 9.923 1.766 8.179-2.443-1.417-3.422-4.578-4.302-3.724-1.037m35.122 5.505c.744 2.965 1.206 2.922-9.186.859-7.886-1.565-10.702-1.382-8.658.562.791.754 20.016 5.079 22.572 5.079 1.329 0 1.022-2.788-.665-6.05-1.938-3.748-4.976-4.085-4.063-.45m-268.825 5.264-7.915 2.556 2.72 2.34c2.743 2.359 5.609 3.098 5.609 1.447 0-.491-.787-1.23-1.75-1.643-1.281-.548.107-1.326 5.182-2.904 3.813-1.185 7.113-2.696 7.334-3.357.576-1.729-2.185-1.344-11.18 1.561M447 284.566c0 .311.486 1.474 1.081 2.585 1.619 3.025.973 3.089-8.936.881-10.887-2.425-13.74-2.529-14.507-.532-.316.825-.435 1.5-.265 1.5.171 0 6.68 1.35 14.464 3 16.357 3.467 15.791 3.411 16.465 1.655 1.072-2.792-3.018-9.655-5.753-9.655-1.402 0-2.549.255-2.549.566m-96.345 2.263c-2.41 2.662-2.045 4.665 1.374 7.542 7.44 6.26 18.451 3.535 15.612-3.863-1.823-4.752-13.689-7.322-16.986-3.679m-250.914.6c-6.94 2.477-9.599 6.086-7.757 10.532 2.637 6.367 13.65 6.583 20.985.412 8.446-7.107-1.326-15.191-13.228-10.944m254.002.161c-2.043 2.043-.544 4.611 3.816 6.539 4.726 2.091 7.441 1.46 7.441-1.728 0-2.685-9.376-6.692-11.257-4.811M104 289.7c-6.338 2.293-8 3.611-8 6.347 0 3.802 2.739 4.533 9.088 2.424 3.356-1.115 5.41-2.471 6.127-4.044 1.856-4.074-2.013-6.608-7.215-4.727m38.007 5.893c-4.4 1.908-8.007 5.253-8.007 7.426 0 4.18 7.269 6.455 12.316 3.856 11.072-5.702 7.058-16.211-4.309-11.282m-.757 3.396c-3.194 1.947-4.317 5.233-2.23 6.523 1.464.905 7.448-1.267 9.383-3.405 3.959-4.374-1.32-6.675-7.153-3.118m237.75.444c0 1.159 11.777 6.209 19.939 8.549 3.411.979 4.106-1.103 2.116-6.337-1.2-3.157-4.708-2.985-4.242.209.384 2.632.875 2.659-6.873-.379-8.172-3.204-10.94-3.72-10.94-2.042m-306.5 1.325c-4.467.776-26.07 7.515-27 8.422-1.211 1.182 6.139 7.783 8.691 7.805 2.852.025 3.238-2.153.718-4.054-2.989-2.255-3.493-1.953 9.841-5.908 6.188-1.836 11.243-3.605 11.235-3.931-.04-1.55-1.679-2.648-3.485-2.334m271.25 1.322c-3.943 2.297-1.317 8.576 4.934 11.795 4.98 2.565 11.316.462 11.316-3.755 0-5.551-11.097-11.041-16.25-8.04m1.612 2.42c-1.193 3.108 4.366 8.486 8.781 8.496 4.55.011 2.348-5.657-3.341-8.598-3.456-1.788-4.724-1.764-5.44.102m73.561 6.423c-7.8 7.8 2.993 19.077 18.258 19.077 6.658 0 11.964-5.583 10.162-10.694-3.264-9.261-22.012-14.791-28.42-8.383m-308.673 3.861c-5.088 2.566-9.25 5.157-9.25 5.756 0 1.206 6.226 4.46 8.534 4.46 2.186 0 1.771-2.107-.534-2.71-3.221-.843-2.388-1.573 6.46-5.668 5.767-2.669 8.215-4.305 7.853-5.25-.838-2.181-3.199-1.565-13.063 3.412m41.75.771c-7.587 5.291-8.071 6.087-4.516 7.439 3.369 1.281 5.516 1.283 5.516.006 0-.55-.675-1-1.5-1-2.666 0-1.591-1.42 4.027-5.321 3.027-2.101 5.245-4.239 4.929-4.75-.905-1.465-1.559-1.184-8.456 3.626m269.783-.977c-1.609 3.53-.318 5.334 6.203 8.672 8.179 4.187 14.014 3.447 14.014-1.776 0-6.824-17.526-12.803-20.217-6.896m-50.148 2.495c-5.243 4.123-2.144 10.915 6.865 15.048 5.524 2.534 9.107 2.363 12.045-.576 4.565-4.564 1.867-10.047-6.966-14.161-6.253-2.911-8.562-2.972-11.944-.311m-39.579 1.677c.091 1.23 12.531 10.75 14.046 10.75.846 0 1.522-1.283 1.711-3.25.233-2.414-.088-3.25-1.25-3.25-.859 0-1.563.717-1.563 1.593 0 1.117-1.462.369-4.889-2.5-4.432-3.711-8.199-5.274-8.055-3.343m42.191.403c-2.831 2.831-.323 6.806 6.453 10.23 8.536 4.312 11.31-3.131 3.063-8.216-4.498-2.773-8.013-3.517-9.516-2.014m-210.433 5.702c-5.655 2.841-9.015 9.19-6.564 12.399 3.381 4.427 11.018 1.876 15.049-5.026 3.457-5.92-1.978-10.643-8.485-7.373m-93.482.996c-12.962 4.479-17.57 12.821-10.665 19.304 6.9 6.479 27.583-2.252 27.583-11.643 0-8.319-6.498-11.262-16.918-7.661m92.893 3.417c-3.498 3.609-4.135 6.446-1.659 7.396 2.177.835 8.6-5.521 8.223-8.138-.456-3.167-3.06-2.873-6.564.742m-38.834-.679C119.842 330.142 113 337 113 340.007c0 6.402 8.861 8.9 15.61 4.4 11.894-7.93 8.62-20.201-4.219-15.818M72 329.672c-9.25 3.989-13.118 10.589-7.856 13.405 4.418 2.364 17.093-4.396 17.678-9.428.631-5.421-3.033-6.904-9.822-3.977m248.621 1.133c-.672 1.086 10.196 13.195 11.842 13.195.717 0 1.575-1.012 1.907-2.25.956-3.568.74-4.75-.87-4.75-.825 0-1.511.788-1.524 1.75-.017 1.171-1.536.012-4.59-3.5-4.505-5.18-5.79-6.024-6.765-4.445m-198.307 3.25c-4.612 3.268-6.122 6.267-4.274 8.493 3.533 4.257 16.419-5.76 13.495-10.491-1.153-1.866-4.92-1.049-9.221 1.998m235.341 2.774c-2.985 3.298-2.08 7.106 2.801 11.783 7.523 7.209 15.654 7.704 17.978 1.095 2.913-8.283-14.93-19.341-20.779-12.878m50.702-.837c-9.273 3.742-6.045 14.402 6.1 20.148 10.546 4.989 19.543 2.233 19.543-5.986 0-8.159-17.107-17.607-25.643-14.162M176.75 342.51c-5.772 7.811-5.832 8.49-.75 8.49 2.2 0 4-.45 4-1s-.907-1-2.015-1c-1.732 0-1.39-.796 2.446-5.683 2.453-3.126 4.234-6.051 3.956-6.5-1.155-1.869-3.145-.385-7.637 5.693m184.785-4.159c-2.662 1.947-1.322 5.869 3.212 9.397 5.195 4.042 6.771 4.442 8.776 2.227 3.593-3.971-7.605-14.829-11.988-11.624m48.132 2.714c-2.683 3.831.339 7.919 9.149 12.377 11.155 5.644 13.175-4.623 2.202-11.192-6.288-3.764-9.323-4.081-11.351-1.185M306.2 341.2c-5.125 5.125 5.368 18.229 11.743 14.664 3.33-1.863 3.66-4.761 1.113-9.754-2.922-5.728-9.519-8.247-12.856-4.91m2.388 2.43c-.917 2.392 4.048 10.37 6.454 10.37 2.932 0 2.57-5.12-.631-8.923-2.873-3.415-4.876-3.913-5.823-1.447m-117.655 4.442c-4.938 5.286-5.162 12.13-.455 13.92 3.542 1.346 6.815-.389 9.396-4.981 5.316-9.46-1.804-16.579-8.941-8.939m-53.523 6.334c-8.787 8.228-8.876 9.157-.985 10.239 5.107.7 6.53-1.468 1.719-2.617-2.005-.48-1.612-1.118 4.276-6.951 6.112-6.056 7.159-8.077 4.181-8.077-.705 0-4.84 3.333-9.191 7.406m57.057-5.73c-4.006 4.006-5.252 11.324-1.928 11.324 1.634 0 5.107-4.742 5.959-8.135.898-3.58-1.636-5.585-4.031-3.189m96.533.815c0 1.279 6.542 15.099 7.458 15.755 1.402 1.003 5.778-4.41 4.555-5.633-.571-.571-1.432-.51-2.237.158-1.024.85-1.848-.201-3.792-4.838-1.687-4.024-3.045-5.926-4.234-5.929-.962-.002-1.75.217-1.75.487M85.5 360.075c-6.05 4.261-11.136 8.413-11.302 9.225-.306 1.496 7.18 4.7 10.98 4.7 2.735 0 2.193-2.869-.678-3.589-3.706-.931-3.349-1.373 7.096-8.798 6.904-4.907 9.291-7.126 8.51-7.907-2.051-2.051-3.632-1.362-14.606 6.369m123.979-.012c-3.028 9.092-2.948 9.435 1.974 8.512 3.777-.709 4.898-2.575 1.547-2.575-2.423 0-2.422.539-.013-6.461 1.899-5.522 1.909-7.539.036-7.539-.472 0-2.067 3.629-3.544 8.063m131.99-6.014c-.62 1.004 12.859 16.479 15.102 17.34 1.737.667 3.086-1.232 3.625-5.101.51-3.67-1.702-5.346-3.611-2.735-1.006 1.375-1.851.859-6.303-3.849-5.394-5.702-7.821-7.26-8.813-5.655m-67.579 2.061c-4.212 4.212-.169 15.091 5.833 15.694 5.752.578 7.93-4.913 4.862-12.256-2.335-5.587-7.035-7.098-10.695-3.438m-47.865 1.865c-4.215 4.215-4.135 13.743.133 15.778 5.614 2.678 9.842-1.981 9.842-10.846 0-6.125-5.876-9.031-9.975-4.932m51.225-1.257c-3.042 1.093-.497 12.418 2.94 13.08 2.294.442 3.117-2.943 1.855-7.632-1.147-4.257-2.819-6.158-4.795-5.448M246 367c0 6.637.335 9 1.277 9 1.69 0 5.723-2.859 5.723-4.057 0-1.397-2.752-1.144-3.338.307-.277.688-.54-2.238-.583-6.5-.063-6.187-.381-7.75-1.579-7.75-1.222 0-1.5 1.667-1.5 9m12.358-2.853c.353 3.38.642 7.157.642 8.393 0 3.136 2.4 3.72 5.446 1.324 2.709-2.131 2.562-4.108-.271-3.641-1.299.215-1.735-.62-1.942-3.723-.423-6.355-1.154-8.5-2.895-8.5-1.391 0-1.531.878-.98 6.147m-31.394-1.013c-2.279 8.465 2.176 12.491 4.836 4.37 1.608-4.908.855-8.504-1.781-8.504-1.43 0-2.235 1.09-3.055 4.134m-72.144.093c-7.243 6.144-8.919 14.506-3.57 17.81 5.696 3.518 12.975-.822 16.394-9.774 1.603-4.199 1.59-4.473-.338-7.066-2.757-3.708-8.713-4.17-12.486-.97m232.771 1.398c-.502 1.308 20.544 18.818 22.76 18.936 2.488.133 3.649-1.994 3.649-6.683 0-4.593-.153-4.878-2.613-4.878-2.321 0-2.566.328-2.184 2.928.418 2.853.376 2.885-1.667 1.25-1.153-.923-5.232-4.204-9.066-7.29-6.914-5.568-9.926-6.748-10.879-4.263m-232.001 3.961c-3.897 5.104-4.512 8.404-1.96 10.522 2.501 2.076 10.603-7.093 10.172-11.512-.496-5.084-3.886-4.676-8.212.99m168.175-1.018c-1.061 1.061 11.577 19.382 13.387 19.408 1.56.023 3.848-4.512 3.848-7.625 0-1.849-2.701-1.708-3.766.196-.677 1.209-1.835.062-5.3-5.25-4.099-6.283-6.575-8.323-8.169-6.729m-217.838 7.409c-4.141 2.189-10.585 8.994-11.972 12.64-3.298 8.675 6.057 15.584 14.845 10.963 3.132-1.647 10.454-9.079 12.083-12.264 4.579-8.955-5.3-16.444-14.956-11.339m70.04 8.09c-6.03 12.015-6.047 11.101.204 10.735 5.392-.315 8.346-2.802 3.329-2.802-1.467 0-2.513-.337-2.325-.75.188-.413 2.025-4.001 4.083-7.975 4.393-8.481 4.277-7.902 1.709-8.574-1.737-.454-2.759.913-7 9.366m-67.547-4.182C99.242 384.483 95.744 396 103.222 396c2.266 0 10.415-7.398 12.42-11.274 1.329-2.57 1.318-3.138-.1-5.302-1.909-2.913-3.082-3.002-7.122-.539M303 379c-2.684 2.684-2.519 6.567.543 12.71 6.924 13.894 20.983 8.057 15.012-6.233-3.315-7.933-10.929-11.103-15.555-6.477m3.192 2.689c-2.419 4.64 4.832 17.195 8.279 14.335 2.153-1.787 1.856-5.773-.823-11.024-2.515-4.931-5.842-6.408-7.456-3.311m-109.167 2.286c-3.12 3.12-5.025 8.227-5.025 13.47 0 5.529 2.742 7.858 8.674 7.37 6.658-.548 11.963-14.367 7.576-19.735-2.669-3.266-8.491-3.839-11.225-1.105m171.026 1.463c-1.056 1.273 16.859 21.785 19.345 22.15 2.258.331 3.527-1.747 4.239-6.939.625-4.563.586-4.649-2.124-4.649-2.548 0-2.714.237-2.147 3.068.65 3.251-.765 1.954-12.162-11.151-3.175-3.651-5.507-4.459-7.151-2.479m-167.907.889c-4.051 4.881-5.337 13.964-2.215 15.635 2.523 1.35 5.365-2.103 6.967-8.465 1.655-6.57-1.411-11.196-4.752-7.17m82.856.491c0 1.001.643 4.038 1.429 6.75a428.5 428.5 0 0 1 2.511 9.079c1.437 5.509 3.462 6.131 7.076 2.174 3.083-3.375 3.061-4.821-.075-4.821-1.152 0-1.973.712-2.02 1.75-.1 2.211-.324 1.568-2.971-8.5-1.751-6.659-2.534-8.25-4.06-8.25-1.16 0-1.89.702-1.89 1.818m-60.467 3.432c-1.385 6.17-3.277 19.34-2.874 20 1.222 1.997 9.341-1.208 9.341-3.687 0-1.462-1.632-1.549-3.79-.201-.957.597-1.158.203-.777-1.528.906-4.118 2.567-14.158 2.567-15.518 0-2.315-3.922-1.496-4.467.934m35.474 1.448c-2.777 3.505-2.355 13.013.763 17.205 2.886 3.881 10.423 4.259 12.792.642 2.305-3.517 1.597-13.512-1.227-17.308-3.047-4.098-9.292-4.371-12.328-.539m-20.014 2.552c-.004 2.337-.287 7.217-.63 10.843-.538 5.697-.386 6.684 1.12 7.262 1.827.701 8.517-2.784 8.517-4.437 0-1.383-3.746-1.103-4.425.332-.326.688-.376-3.137-.111-8.5l.482-9.75h-2.473c-2.242 0-2.474.398-2.48 4.25m23.358-.721c-1.134 2.953.226 13.476 1.965 15.216 4.079 4.078 7.235-8.11 3.775-14.576-1.338-2.499-4.876-2.893-5.74-.64m-133.964 12.096c-9.63 13.014-9.633 13.334-.137 13.36 4.451.012 5.75-.324 5.75-1.485 0-1.564-.917-1.853-4.851-1.526-2.063.172-1.415-1.039 5.299-9.906 4.207-5.555 7.376-10.543 7.042-11.084-1.831-2.962-4.856-.505-13.103 10.641m217.69-3.036c-8.527 7.175 4.412 28.461 15.681 25.797 7.914-1.871 9.504-9.2 3.992-18.397-5.802-9.68-13.515-12.582-19.673-7.4m2.762 3.865c-2.283 5.011 7.421 19.55 12.065 18.077 4.522-1.436 3.426-7.827-2.791-16.281-3.711-5.046-7.462-5.772-9.274-1.796m-194.811 5.176c-4.252 3.577-8.311 11.862-8.431 17.206-.195 8.718 9.677 12.374 16.72 6.191 4.618-4.055 9.078-14.106 8.241-18.57-1.361-7.256-10.48-9.918-16.53-4.827m4.694 2.374c-7.418 5.835-10.036 19.996-3.696 19.996 5.719 0 12.455-16.376 8.403-20.429-1.943-1.942-1.654-1.969-4.707.433M319 416.909c0 .573 2.444 6.566 5.432 13.317 6.638 15.001 8.753 16.289 12.998 7.912 2.588-5.107 2.194-6.363-1.68-5.359-1.1.286-1.759 1.433-1.774 3.088-.016 1.723-1.693-1.17-4.85-8.367-4.246-9.678-5.144-11.038-7.476-11.316-1.457-.174-2.65.152-2.65.725m-137.173 18.055c-4.373 13.192-4.522 13.998-2.708 14.574 2.654.842 11.881-2.356 11.881-4.118 0-1.739-4.125-1.895-5.8-.22-1.682 1.682-1.649 1.544 2.708-11.425 4.009-11.934 3.992-12.775-.262-12.775-.654 0-3.273 6.284-5.819 13.964m110.415-9.47c-10.754 4.674-3.876 28.506 8.227 28.506 7.333 0 9.946-3.243 9.281-11.52-1.138-14.177-8.202-21.03-17.508-16.986m-80.973 3.718c-7.461 3.601-9.248 24.053-2.419 27.708 3.249 1.738 10.613 1.34 12.367-.67 4.215-4.832 6.491-14.908 4.792-21.217-1.632-6.061-8.567-8.8-14.74-5.821m82.931-.012c-1.674 1.674-1.497 8.573.36 14.021 4.314 12.661 12.293 8.56 8.925-4.587-2.454-9.579-5.77-12.949-9.285-9.434m-30.696 1.794c-.377.61-.181 5.923.437 11.807 1.78 16.973 1.838 17.199 4.401 17.199 2.423 0 10.174-7.151 9.012-8.313-1.289-1.288-4.252-.691-5.274 1.063-.561.962-1.062 1.525-1.115 1.25-.053-.275-.63-5.675-1.281-12-1.089-10.579-1.357-11.525-3.34-11.807-1.185-.169-2.464.191-2.84.801M243 446c0 14.585.058 15 2.106 15 2.208 0 9.894-5.503 9.894-7.084 0-1.61-4.23-.981-5.608.834-1.127 1.485-1.333-.183-1.36-11L248 431h-5v15m-30.678-10.25c-3.959 9.418-2.083 20.907 3.088 18.923 3.819-1.466 7.123-15.941 4.68-20.505-1.959-3.661-5.902-2.858-7.768 1.582" fill-rule="evenodd"/></svg>